<svg id="Capa_1" enable-background="new 0 0 512 512" height="512" viewBox="0 0 512 512" width="512" xmlns="http://www.w3.org/2000/svg"><g><g><path d="m10 432.864h492v52.704h-492z" fill="#ffd3b3"/></g><g><path d="m40.217 389.777h106.139v43.087h-106.139z" fill="#ffd3b3"/></g><g><path d="m201.107 389.777h106.139v43.087h-106.139z" fill="#ffd3b3"/></g><g><path d="m201.107 192.389h106.139v42.936h-106.139z" fill="#ffd3b3"/></g><g><path d="m361.284 389.777h106.139v43.087h-106.139z" fill="#ffd3b3"/></g><g><path d="m361.284 192.389h106.139v42.936h-106.139z" fill="#ffd3b3"/></g><g><path d="m63.068 389.777v-89.57h27.881c3.926 0 7.746-1.276 10.885-3.635l21.673-16.293v109.498z" fill="#ffbe8c"/></g><g><path d="m222.913 235.325v53.284c0 2.399 1.128 4.659 3.046 6.1l9.154 6.88c3.894 2.926 4.086 8.702.396 11.882l-9.947 8.571c-1.682 1.45-2.65 3.56-2.65 5.781v61.953h62.527v-154.451z" fill="#ffbe8c"/></g><g><path d="m443.94 389.777v-26.228c0-2.344-1.102-4.551-2.976-5.959l-9.4-7.065c-3.804-2.859-3.992-8.501-.387-11.607l10.174-8.767c1.643-1.416 2.589-3.478 2.589-5.647v-89.178h-62.527v154.452z" fill="#ffbe8c"/></g><g><path d="m247.992 26.432-80.421 38.194v55.874l-30.377 14.745v57.144h364.806v-51.149z" fill="#ffd3b3"/></g><g><path d="m137.194 140.267h240.596l-129.466-58.517-111.13 53.479z" fill="#ffbe8c"/></g><g><path d="m453.94 324.503v-79.178h13.482c5.522 0 10-4.478 10-10v-32.935h24.578c5.522 0 10-4.478 10-10v-51.15c0-3.929-2.301-7.494-5.881-9.112l-254.008-114.809c-2.679-1.21-5.753-1.183-8.409.079l-80.421 38.194c-3.487 1.656-5.71 5.173-5.71 9.033v49.612l-24.714 11.98c-3.462 1.666-5.664 5.169-5.664 9.011v.016 57.145c0 5.522 4.477 10 10 10h53.913v32.936c0 5.522 4.477 10 10 10h11.806v43.284c0 5.514 2.631 10.782 7.038 14.095l6.802 5.112-7.716 6.649c-3.892 3.353-6.124 8.221-6.124 13.358v51.953h-11.806c-5.523 0-10 4.478-10 10v33.086h-34.75v-33.086c0-5.522-4.477-10-10-10h-12.851v-99.498c0-3.79-2.142-7.254-5.533-8.947-3.389-1.69-7.446-1.323-10.476.954l-21.672 16.293c-1.396 1.05-3.128 1.628-4.876 1.628h-27.881c-5.523 0-10 4.478-10 10v79.57h-12.85c-5.523 0-10 4.478-10 10v33.086h-20.217c-5.523 0-10 4.478-10 10v52.705c0 5.522 4.477 10 10 10h201.454c5.523 0 10-4.478 10-10s-4.477-10-10-10h-191.454v-32.705h472v32.705h-192.581c-5.522 0-10 4.478-10 10s4.478 10 10 10h202.581c5.522 0 10-4.478 10-10v-52.705c0-5.522-4.478-10-10-10h-24.577v-33.086c0-5.522-4.478-10-10-10h-13.483v-16.229c0-5.457-2.604-10.673-6.967-13.952l-6.873-5.167 7.778-6.703c3.853-3.318 6.062-8.137 6.062-13.222zm3.483-99.178h-86.139v-22.935h86.139zm-96.139 154.452c-5.522 0-10 4.478-10 10v33.086h-34.039v-33.086c0-5.522-4.478-10-10-10h-11.806v-134.452h11.806c5.522 0 10-4.478 10-10v-32.935h34.039v32.936c0 5.522 4.478 10 10 10h10.13v134.452h-10.13zm-112.827-286.993 82.93 37.483h-160.821zm-101.263 57.484h230.596c4.711 0 8.783-3.288 9.775-7.894s-1.364-9.278-5.656-11.219l-129.466-58.517c-2.694-1.216-5.79-1.181-8.455.102l-66.417 31.962v-33.755l70.525-33.494 243.904 110.241v34.695h-344.806zm63.912 52.122h86.139v22.936h-86.139zm21.807 126.52 9.125-7.863c8.398-7.236 7.944-20.79-.916-27.451l-8.208-6.169v-42.102h42.527v134.452h-42.527v-50.867zm-159.846-18.703h17.881c6.055 0 12.054-2.004 16.894-5.642l5.663-4.258v79.47h-40.438zm-22.85 112.656v-23.086h86.139v23.086zm160.889 0v-23.086h86.139v23.086zm246.317 0h-86.139v-23.086h86.139zm-66.009-43.086v-134.452h42.526v78.011l-9.29 8.006c-8.315 7.164-7.864 20.585.906 27.176l8.384 6.302v14.958h-42.526z"/><path d="m264.319 481.74c-2.095-5.032-8.023-7.49-13.06-5.41-5.039 2.081-7.487 8.029-5.41 13.06 2.081 5.038 8.026 7.495 13.061 5.41 5.046-2.09 7.477-8.02 5.409-13.06z"/></g></g></svg>