<svg id="Layer_2" viewBox="0 0 64 64" xmlns="http://www.w3.org/2000/svg" data-name="Layer 2"><g><path d="m53 50.6c-1.27 1.44-3.07 2.22-4.91 2.22-.58 0-1.15-.1-1.72-.26-.2-.05-.4-.09-.6-.16l-4.77-1.8c-1.27 1.44-3.06 2.22-4.91 2.22-.77 0-1.55-.14-2.31-.42l-1.13-.43-3.64-1.37h-.01c-1.48 1.68-3.67 2.46-5.82 2.15.3.27.43.7.32 1.1l-.88 3.38c-.22.84-1.14 1.28-1.93.92l-2.45-1.09c-.79-.36-1.08-1.34-.6-2.06l1.93-2.91c.11-.16.25-.29.41-.37l-2.97-1.12h-.01c-.43.44-.92.8-1.43 1.1-1.85 1.09-4.11 1.33-6.18.55l-4.39-1.65-3 3.4v8h60v-8zm-18.8 3.39-.67 3.42c-.16.85-1.05 1.35-1.86 1.05l-2.52-.94c-.81-.3-1.16-1.26-.73-2.01l1.74-3.03c.27-.47.84-.67 1.35-.48l1 .37.99.37c.51.19.8.72.7 1.25z" fill="#86caff"/><path d="m61.37 30.52c0 .56-.51 1.09-1.37 1.48h-4l-1 3-.93 8.38c-.5 4.43-3.62 7.98-7.7 9.18-.2-.05-.4-.09-.6-.16l-4.77-1.8c-1.27 1.44-3.06 2.22-4.91 2.22-.77 0-1.55-.14-2.31-.42l-1.13-.43-3.64-1.37h-.01c-1.48 1.68-3.67 2.46-5.82 2.15-.09-.08-.19-.14-.3-.19l-.96-.43-.97-.44c-.32-.14-.68-.12-.97.03l-2.97-1.12h-.01c-.43.44-.92.8-1.43 1.1-3.04-1.63-5.23-4.68-5.64-8.32l-.93-8.38 3.37 6.75c.39.77 1.17 1.25 2.03 1.25h1.6c0 2.76 2.24 5 5 5 1.29 0 2.46-.5 3.35-1.31 1.01-.92 1.65-2.22 1.65-3.69 0 2.76 2.24 5 5 5 1.53 0 2.88-.7 3.8-1.79.74-.87 1.2-1.98 1.2-3.21 0 2.76 2.24 5 5 5s5-2.24 5-5c0-.27-.02-.53-.07-.78 2.27-1.04 4.03-3.07 4.67-5.62l.02-.07c.21-.84.31-1.76.37-2.61.02-.35.03-.7.03-1.05 0-.91-.07-1.82-.2-2.72-.03-.24-.06-.5-.06-.78 0-1.02.33-2.17 1.75-2.34-.51-1.03-.51-3.03-.51-3.03l8 5c.48.24.82.49 1.04.75.22.25.33.51.33.77z" fill="#db9258"/><path d="m23 9h-10c5.33 8 5.33 16 0 24h10c5.33-8 5.33-16 0-24z" fill="#fb6f4c"/><path d="m34 9h-11c5.33 8 5.33 16 0 24h11c5.33-8 5.33-16 0-24z" fill="#fbe9d0"/><path d="m34 9c5.33 8 5.33 16 0 24h9c5.33-8 5.33-16 0-24z" fill="#fb6f4c"/><path d="m21 38c-2.76 0-5 2.24-5 5s2.24 5 5 5c1.29 0 2.46-.5 3.35-1.31 1.01-.91 1.65-2.22 1.65-3.69 0-2.76-2.24-5-5-5zm0 7c-1.1 0-2-.9-2-2s.9-2 2-2 2 .9 2 2-.9 2-2 2z" fill="#dbbd83"/><circle cx="21" cy="43" fill="#db9258" r="2"/><path d="m31 38c-2.76 0-5 2.24-5 5s2.24 5 5 5c1.53 0 2.88-.7 3.8-1.79.74-.87 1.2-1.98 1.2-3.21 0-2.76-2.24-5-5-5zm0 7c-1.1 0-2-.9-2-2s.9-2 2-2 2 .9 2 2-.9 2-2 2z" fill="#dbbd83"/><circle cx="31" cy="43" fill="#db9258" r="2"/><path d="m41 48c2.76 0 5-2.24 5-5s-2.24-5-5-5-5 2.24-5 5 2.24 5 5 5zm0-7c1.1 0 2 .9 2 2s-.9 2-2 2-2-.9-2-2 .9-2 2-2z" fill="#dbbd83"/><g fill="#db9258"><circle cx="41" cy="43" r="2"/><path d="m22.88 52.56-1.94-.87c-.49-.22-1.08-.05-1.38.4l-1.93 2.91c-.48.72-.2 1.7.6 2.06l2.45 1.1c.79.35 1.71-.09 1.93-.93l.88-3.37c.14-.52-.13-1.07-.62-1.29z"/><path d="m30.16 52.48-1.74 3.02c-.43.75-.09 1.71.73 2.01l2.52.94c.81.3 1.7-.2 1.87-1.05l.67-3.42c.1-.53-.19-1.06-.7-1.25l-.99-.37-.99-.37c-.51-.19-1.08.02-1.35.49z"/></g></g><g><path d="m62.35 53.06-9-3.4c-.39-.15-.83-.04-1.1.27-.04.04-.08.07-.12.11 1.6-1.79 2.65-4.06 2.93-6.56l.92-8.27.74-2.22h3.28c.14 0 .28-.03.41-.09 1.68-.76 1.95-1.8 1.96-2.35.01-.67-.31-1.65-1.84-2.41l-8-5c-.31-.19-.7-.2-1.01-.03-.32.18-.52.51-.52.88 0 .17 0 1.31.25 2.39-.32.17-.59.41-.81.69-.74.95-.74 2.27-.6 3.21.18 1.27.23 2.44.16 3.56-.06.96-.1 4.64-3.44 6.87-.9-2.18-3.05-3.72-5.55-3.72-2.09 0-3.92 1.07-5 2.69-1.08-1.62-2.91-2.69-5-2.69v-3h12c.33 0 .65-.17.83-.45 5.55-8.33 5.55-16.78 0-25.11-.19-.28-.5-.45-.83-.45h-12v-3c0-.55-.45-1-1-1s-1 .45-1 1v3h-16.01c-.37 0-.71.2-.88.53s-.15.72.05 1.03c5.13 7.7 5.13 15.19 0 22.89-.2.31-.22.7-.05 1.03s.51.53.88.53h16v3.35c-1.24.44-2.29 1.27-3 2.34-1.08-1.62-2.91-2.69-5-2.69-2.97 0-5.43 2.17-5.91 5h-.69c-.48 0-.92-.27-1.14-.7l-3.37-6.75s0 0 0 0c-.79-1.57-2.37-2.55-4.13-2.55h-1.76c-.55 0-1 .45-1 1s.45 1 1 1h1.76c.95 0 1.8.52 2.27 1.34l.91 8.15c.36 3.21 2.01 6.07 4.52 8.01-1.21.31-2.5.27-3.72-.19l-4.39-1.65c-.39-.15-.83-.04-1.1.27l-3 3.4c-.37.41-.33 1.05.09 1.41.19.17.43.25.66.25.28 0 .55-.11.75-.34l2.54-2.88 3.74 1.41c2.78 1.05 5.91.49 8.19-1.44l1.09.41-1.52 2.28c-.39.59-.5 1.32-.31 2s.68 1.24 1.33 1.53l2.45 1.1c.31.14.65.21.98.21.35 0 .71-.08 1.04-.24.64-.31 1.11-.88 1.29-1.56l.88-3.37c.03-.1.04-.21.05-.31 1.76-.1 3.44-.8 4.74-2.03l.15.06c-.04.05-.08.11-.12.16l-1.74 3.02c-.35.61-.42 1.35-.18 2.01.24.67.76 1.19 1.42 1.44l2.52.94c.27.1.56.15.84.15.41 0 .81-.1 1.17-.31.62-.35 1.05-.94 1.18-1.64l.67-3.42c.03-.15.04-.29.04-.44 2.21.25 4.44-.47 6.04-1.98l4.16 1.57c2.73 1 5.79.35 7.84-1.57l8.39 3.17c.12.04.24.06.35.06.4 0 .78-.25.94-.65.2-.52-.07-1.09-.58-1.29zm-28.9-43.06c4.75 7.4 4.75 14.6 0 22h-8.64c4.26-7.31 4.26-14.69 0-22zm9.01 22h-6.66c4.26-7.31 4.26-14.69 0-22h6.66c4.75 7.4 4.75 14.6 0 22zm-27.66-22h7.64c4.75 7.4 4.75 14.6 0 22h-7.64c4.26-7.31 4.26-14.69 0-22zm26.2 29c2.21 0 4 1.79 4 4s-1.79 4-4 4-4-1.79-4-4 1.79-4 4-4zm-10 0c2.16 0 3.91 1.72 3.99 3.86l-1.07 2.86c-.73.79-1.76 1.28-2.92 1.28-2.21 0-4-1.79-4-4s1.79-4 4-4zm-10 0c2.15 0 3.89 1.7 3.98 3.83l-1.45 3.25c-.69.57-1.57.93-2.53.93-2.21 0-4-1.79-4-4s1.79-4 4-4zm-4.71 10.9c-.23.23-.48.44-.74.62-2.57-1.58-4.29-4.24-4.63-7.26l-.31-2.8.86 1.73c.56 1.11 1.68 1.8 2.92 1.8h.69c.48 2.83 2.94 5 5.91 5 .44 0 .87-.05 1.28-.14l-.87 1.95-.05-.02c-.44-.2-.91-.23-1.35-.12l-2.64-1c-.37-.14-.79-.04-1.07.24zm5.36 7.07c-.04.16-.15.23-.22.26s-.19.07-.34 0l-2.45-1.1c-.15-.07-.2-.19-.22-.26s-.04-.2.05-.33l1.93-2.91s.05-.05.09-.05h.04l1.94.87s.07.07.06.13l-.88 3.37zm6.59-7.04c-1.19 1.36-2.95 2.03-4.73 1.84-.07-.04-.15-.09-.23-.13l-.06-.03 1.93-4.32c.31-.3.59-.63.83-1 1.08 1.62 2.91 2.69 5 2.69.63 0 1.23-.1 1.8-.28l-.73 1.96-2.7-1.02c-.38-.15-.84-.03-1.11.27zm4.3 7.29c-.03.16-.14.24-.2.27s-.18.08-.34.03l-2.52-.94c-.15-.06-.21-.18-.24-.24-.02-.07-.05-.2.03-.34l1.74-3.02s.08-.06.13-.05l1.99.74s.08.07.07.12l-.67 3.42zm8.8-7.56c-.39-.15-.83-.04-1.1.27-1.49 1.69-3.93 2.33-6.12 1.53l-.2-.07 1.72-4.62c.12-.15.23-.3.34-.46 1.08 1.62 2.91 2.69 5 2.69 3.31 0 6-2.69 6-6 0-.07 0-.14-.01-.21 0-.06.76-.46.84-.53.3-.21.58-.43.85-.67.54-.47 1.02-1.01 1.44-1.59 1.26-1.78 1.73-3.88 1.86-6.02.08-1.26.02-2.56-.17-3.97-.11-.78-.03-1.4.2-1.7.08-.1.23-.24.6-.28.32-.04.61-.23.76-.51s.16-.63.02-.92c-.08-.17-.15-.4-.21-.66l6.36 3.97c.62.31.8.57.82.61-.01.05-.15.26-.6.49h-3.77c-.43 0-.81.28-.95.68l-1 3c-.02.07-.04.14-.04.21l-.93 8.38c-.43 3.87-3.08 7.07-6.76 8.25-.06-.02-.13-.03-.19-.05l-4.77-1.8z"/><path d="m21 46c1.65 0 3-1.35 3-3s-1.35-3-3-3-3 1.35-3 3 1.35 3 3 3zm0-4c.55 0 1 .45 1 1s-.45 1-1 1-1-.45-1-1 .45-1 1-1z"/><path d="m31 46c1.65 0 3-1.35 3-3s-1.35-3-3-3-3 1.35-3 3 1.35 3 3 3zm0-4c.55 0 1 .45 1 1s-.45 1-1 1-1-.45-1-1 .45-1 1-1z"/><path d="m41 46c1.65 0 3-1.35 3-3s-1.35-3-3-3-3 1.35-3 3 1.35 3 3 3zm0-4c.55 0 1 .45 1 1s-.45 1-1 1-1-.45-1-1 .45-1 1-1z"/></g></svg>