<svg id="Capa_1" enable-background="new 0 0 512 512" height="512" viewBox="0 0 512 512" width="512" xmlns="http://www.w3.org/2000/svg"><g><g><path d="m77.714 40.055-34.622 115.008c-3.933 13.064-6.946 26.387-9.017 39.872l-7.924 51.582h37.907c5.857 0 11.658-1.136 17.082-3.345 8.666-3.616 18.571-4.279 27.679-2.088l15.157 3.647c4.912 1.182 9.987 1.534 15.016 1.041l76.683-7.517c3.937-.386 7.908-.254 11.812.391l39.046 6.459c5.637.933 11.4.79 16.985-.42l59.126-12.811c6.275-1.36 12.767-1.37 19.046-.03l64.078 13.675c3.108.663 6.276.998 9.454.998h57.018l-33.411-131.07-23.099-75.496c-3.143-10.273-12.626-17.289-23.369-17.289h-311.246c-10.784 0-20.293 7.068-23.401 17.393z" fill="#eab7a2"/></g><g><path d="m451.26 246.518h-16.04c-3.18 0-6.35-.34-9.45-1l-37.86-8.08-26.22-5.59c-6.28-1.34-12.77-1.33-19.05.03l-59.12 12.81c-4.09.89-8.27 1.2-12.43.93-1.53-.09-3.05-.26-4.56-.51l-39.04-6.46c-3.91-.65-7.88-.78-11.81-.39l-76.69 7.51c-5.03.5-10.1.15-15.01-1.04l-15.16-3.64c-9.158-2.205-18.956-1.474-27.68 2.08-5.42 2.21-11.23 3.35-17.08 3.35h-6.62v172.66h31.97c10.502 0 20.266 4.486 27.53 11.97 7.05 7.04 16.6 11 26.57 11h50.42c9.96 0 19.52-3.96 26.57-11l16.6-16.6c7.04-7.05 16.6-11.01 26.56-11.01h124.25c9.97 0 19.53 3.96 26.57 11.01 6.989 6.989 16.685 11 26.57 11h10.21z" fill="#efd0c1"/></g><g><path d="m10 489.338v-70.164h79.408c10.55 0 20.197 4.523 27.533 11.969 7.046 7.046 16.603 11.005 26.568 11.005h50.418c9.965 0 19.522-3.959 26.568-11.005l16.6-16.6c7.046-7.046 16.603-11.005 26.568-11.005h124.251c9.965 0 19.522 3.959 26.568 11.005 6.998 6.998 16.671 11.005 26.568 11.005h60.95v63.789h-492z" fill="#d98964"/></g><g><path d="m387.91 237.438v166.1h-116.82v-157.92c4.16.27 8.34-.04 12.43-.93l59.12-12.81c6.28-1.36 12.77-1.37 19.05-.03z" fill="#838eb1"/></g><g><path d="m502 415.549h-40.74v-38.088c0-5.522-4.478-10-10-10s-10 4.478-10 10v38.087c-7.309.015-14.529-2.898-19.705-8.075-6.457-6.457-14.71-10.975-23.645-12.877v-144.796l25.77 5.5c3.789.808 7.665 1.219 11.54 1.219h6.04v32.954c0 5.522 4.478 10 10 10s10-4.478 10-10v-32.955h30.979c3.088 0 6.002-1.426 7.896-3.864 1.895-2.438 2.557-5.614 1.794-8.605l-33.411-131.07c-.039-.153-.082-.305-.128-.456l-23.097-75.497c-4.459-14.572-17.693-24.362-32.932-24.362h-311.247c-15.311 0-28.562 9.851-32.976 24.511l-34.621 115.006c-4.053 13.46-7.19 27.334-9.326 41.236l-7.924 51.582c-.443 2.884.396 5.816 2.295 8.03 1.899 2.215 4.672 3.488 7.589 3.488h21.289v152.657h-37.44c-5.522 0-10 4.478-10 10v70.163c0 5.522 4.478 10 10 10h492c5.522 0 10-4.478 10-10v-63.789c0-5.522-4.478-9.999-10-9.999zm-124.09-22.011h-96.82v-138.286c1.522-.199 3.048-.464 4.548-.79l59.117-12.811c4.929-1.065 9.923-1.075 14.85-.022l18.306 3.905v148.004zm-333.952-197.084c1.995-12.982 4.926-25.938 8.709-38.508l34.622-115.008c1.851-6.146 7.406-10.276 13.825-10.276h29.689c-4.139 22.555-13.184 72.264-18.303 103.573-.891 5.45 2.806 10.591 8.256 11.482.547.089 1.089.133 1.625.133 4.812 0 9.056-3.484 9.857-8.389 5.386-32.947 15.162-86.478 18.899-106.8h261.224c6.389 0 11.938 4.104 13.807 10.214l23.027 75.27 30.174 118.372h-44.148c-2.468 0-4.951-.266-7.364-.778l-21.02-4.484c-6.274-33.669-24.73-104.573-25.569-107.792-1.393-5.344-6.848-8.546-12.2-7.153-5.344 1.394-8.547 6.855-7.153 12.2.189.722 16.352 62.812 23.646 98.203l-21.784-4.648c-7.652-1.633-15.603-1.62-23.25.036l-6.127 1.328-4.461-41.688c-.588-5.491-5.517-9.457-11.008-8.879-5.491.588-9.467 5.516-8.879 11.008l4.689 43.819-33.342 7.224c-4.335.938-8.858 1.051-13.234.327l-39.045-6.459c-4.767-.788-9.618-.951-14.42-.477l-76.698 7.514c-7.206.718-14.066-1.384-20.985-3.046l-5.858-1.409c-11.132-2.679-22.941-1.83-33.253 2.338-4.45 1.76-9.045 2.817-13.848 2.817h-26.254zm23.481 59.962c6.025-.366 12.056-1.733 17.635-4.045 6.738-2.706 14.329-3.264 21.411-1.559l5.73 1.376c9.211 2.216 18.149 4.478 27.753 3.537l49.403-4.843 2.363-.231v16.687c0 5.522 4.478 10 10 10s10-4.478 10-10v-18.646c4.729-.463 9.386-.967 14.123-.177l35.232 5.829v139.268c-11.741.622-22.69 5.485-31.065 13.861l-16.6 16.6c-5.108 5.108-12.273 8.076-19.497 8.076h-50.417c-1.789 0-3.584-.173-5.34-.515v-47.235c0-5.522-4.478-10-10-10s-10 4.478-10 10v34.454c-8.23-6.271-18.418-9.678-28.762-9.678h-21.969zm424.561 222.922h-472v-50.163h37.381c.02 0 .038.003.058.003h31.971c7.917 0 15.009 3.44 20.464 9.047 2.715 2.711 5.702 5.047 8.895 6.997 7.415 4.533 16.055 6.927 24.741 6.927h50.418c12.566.001 24.749-5.048 33.644-13.929l16.604-16.605c5.111-5.119 12.255-8.075 19.488-8.075h124.251c7.281 0 14.35 2.929 19.494 8.079 8.82 8.822 21.166 13.931 33.643 13.931h50.948z"/><path d="m459.569 326.72c-3.017-4.534-9.344-5.775-13.869-2.76-4.53 3.019-5.778 9.345-2.761 13.87 3.025 4.537 9.341 5.774 13.87 2.76 4.561-3.034 5.74-9.325 2.76-13.87z"/></g></g></svg>