<svg xmlns="http://www.w3.org/2000/svg" viewBox="0 0 24 24" width="64" height="64"><g fill="#ffffff" stroke="#ffffff" stroke-width="2.2" stroke-linejoin="round" stroke-linecap="round"><rect x="2.20" y="2.80" width="19.60" height="18.40" rx="0.8"/><rect x="2.20" y="6.20" width="7.60" height="15.00"/><path d="M2.40 7.40q1.85 -0.80 3.70 0q1.85 0.80 3.70 0l0 1.20q-1.85 0.80 -3.70 0q-1.85 -0.80 -3.70 0Z"/><path d="M2.40 13.00q1.85 -0.80 3.70 0q1.85 0.80 3.70 0l0 1.20q-1.85 0.80 -3.70 0q-1.85 -0.80 -3.70 0Z"/><path d="M7.20 21.20L10.40 5.40L14.00 5.40L17.20 21.20Z"/><path d="M7.20 21.20L10.40 5.40L12.20 5.40L12.20 21.20Z"/><rect x="9.80" y="4.00" width="4.80" height="1.90" rx="0.4"/></g><g><rect x="2.20" y="2.80" width="19.60" height="18.40" rx="0.8" fill="#5d914a"/><rect x="2.20" y="6.20" width="7.60" height="15.00" fill="#5ea4d1"/><path d="M2.40 7.40q1.85 -0.80 3.70 0q1.85 0.80 3.70 0l0 1.20q-1.85 0.80 -3.70 0q-1.85 -0.80 -3.70 0Z" fill="#3d7fae"/><path d="M2.40 13.00q1.85 -0.80 3.70 0q1.85 0.80 3.70 0l0 1.20q-1.85 0.80 -3.70 0q-1.85 -0.80 -3.70 0Z" fill="#3d7fae"/><path d="M7.20 21.20L10.40 5.40L14.00 5.40L17.20 21.20Z" fill="#a97748"/><path d="M7.20 21.20L10.40 5.40L12.20 5.40L12.20 21.20Z" fill="#7d5432"/><rect x="9.80" y="4.00" width="4.80" height="1.90" rx="0.4" fill="#b3aea4"/></g></svg>