<svg xmlns="http://www.w3.org/2000/svg" viewBox="0 0 24 24" width="64" height="64"><g fill="#ffffff" stroke="#ffffff" stroke-width="2.2" stroke-linejoin="round" stroke-linecap="round"><rect x="2.20" y="6.00" width="19.60" height="15.20" rx="0.8"/><ellipse cx="6.60" cy="9.60" rx="3.60" ry="2.80"/><ellipse cx="16.00" cy="8.00" rx="3.60" ry="2.80"/><ellipse cx="8.80" cy="17.00" rx="3.60" ry="2.80"/><ellipse cx="18.00" cy="15.40" rx="3.60" ry="2.80"/><path d="M9.62 11.06L13.82 9.66L13.38 8.34L9.18 9.74Z"/><path d="M11.57 16.68L15.57 15.68L15.23 14.32L11.23 15.32Z"/><circle cx="6.60" cy="9.60" r="1.30"/><circle cx="16.00" cy="8.00" r="1.30"/><circle cx="8.80" cy="17.00" r="1.30"/><circle cx="18.00" cy="15.40" r="1.30"/></g><g><rect x="2.20" y="6.00" width="19.60" height="15.20" rx="0.8" fill="#a97748"/><ellipse cx="6.60" cy="9.60" rx="3.60" ry="2.80" fill="#7d5432"/><ellipse cx="16.00" cy="8.00" rx="3.60" ry="2.80" fill="#7d5432"/><ellipse cx="8.80" cy="17.00" rx="3.60" ry="2.80" fill="#7d5432"/><ellipse cx="18.00" cy="15.40" rx="3.60" ry="2.80" fill="#7d5432"/><path d="M9.62 11.06L13.82 9.66L13.38 8.34L9.18 9.74Z" fill="#98673e"/><path d="M11.57 16.68L15.57 15.68L15.23 14.32L11.23 15.32Z" fill="#98673e"/><circle cx="6.60" cy="9.60" r="1.30" fill="#c28c5c"/><circle cx="16.00" cy="8.00" r="1.30" fill="#c28c5c"/><circle cx="8.80" cy="17.00" r="1.30" fill="#c28c5c"/><circle cx="18.00" cy="15.40" r="1.30" fill="#c28c5c"/></g></svg>