<svg xmlns="http://www.w3.org/2000/svg" viewBox="0 0 24 24" width="64" height="64"><g fill="#ffffff" stroke="#ffffff" stroke-width="2.2" stroke-linejoin="round" stroke-linecap="round"><rect x="2.20" y="18.80" width="19.60" height="2.60" rx="0.9"/><path d="M6.80 18.90L8.60 5.20L15.40 5.20L17.20 18.90Z"/><path d="M6.80 18.90L8.60 5.20L12.00 5.20L12.00 18.90Z"/><path d="M11.05 7.70L11.05 15.10L12.95 15.10L12.95 7.70Z"/><path d="M9.30 11.46L14.70 11.46L14.70 9.56L9.30 9.56Z"/><circle cx="3.40" cy="18.00" r="1.30"/><circle cx="20.60" cy="18.00" r="1.30"/></g><g><rect x="2.20" y="18.80" width="19.60" height="2.60" rx="0.9" fill="#5d914a"/><path d="M6.80 18.90L8.60 5.20L15.40 5.20L17.20 18.90Z" fill="#b3aea4"/><path d="M6.80 18.90L8.60 5.20L12.00 5.20L12.00 18.90Z" fill="#8a847a"/><path d="M11.05 7.70L11.05 15.10L12.95 15.10L12.95 7.70Z" fill="#cf5340"/><path d="M9.30 11.46L14.70 11.46L14.70 9.56L9.30 9.56Z" fill="#cf5340"/><circle cx="3.40" cy="18.00" r="1.30" fill="#8a847a"/><circle cx="20.60" cy="18.00" r="1.30" fill="#8a847a"/></g></svg>