<svg xmlns="http://www.w3.org/2000/svg" viewBox="0 0 24 24" width="64" height="64"><g fill="#ffffff" stroke="#ffffff" stroke-width="2.2" stroke-linejoin="round" stroke-linecap="round"><rect x="2.20" y="18.80" width="19.60" height="2.60" rx="0.9"/><path d="M12.00 18.90a5.40 4.60 0 0 1 10.80 0Z"/><path d="M2.60 18.90L8.00 7.60L13.40 18.90Z"/><path d="M2.60 18.90L8.00 7.60L8.00 18.90Z"/><circle cx="17.40" cy="18.40" r="1.10"/></g><g><rect x="2.20" y="18.80" width="19.60" height="2.60" rx="0.9" fill="#5d914a"/><path d="M12.00 18.90a5.40 4.60 0 0 1 10.80 0Z" fill="#82b464"/><path d="M2.60 18.90L8.00 7.60L13.40 18.90Z" fill="#c28c5c"/><path d="M2.60 18.90L8.00 7.60L8.00 18.90Z" fill="#98673e"/><circle cx="17.40" cy="18.40" r="1.10" fill="#b3aea4"/></g></svg>