<svg xmlns="http://www.w3.org/2000/svg" viewBox="0 0 24 24" width="64" height="64"><g fill="#ffffff" stroke="#ffffff" stroke-width="2.2" stroke-linejoin="round" stroke-linecap="round"><rect x="2.20" y="18.80" width="19.60" height="2.60" rx="0.9"/><rect x="2.60" y="10.60" width="18.80" height="8.40" rx="0.4"/><rect x="2.60" y="10.60" width="6.20" height="8.40" rx="0.4"/><path d="M9.40 18.90L9.40 14.20L14.60 14.20L14.60 18.90Z"/><path d="M9.40 14.40a2.60 2.60 0 0 1 5.20 0Z"/><rect x="2.60" y="8.40" width="2.60" height="2.40"/><rect x="7.20" y="8.40" width="2.60" height="2.40"/><rect x="11.80" y="8.40" width="2.60" height="2.40"/><rect x="16.40" y="8.40" width="2.60" height="2.40"/></g><g><rect x="2.20" y="18.80" width="19.60" height="2.60" rx="0.9" fill="#a97748"/><rect x="2.60" y="10.60" width="18.80" height="8.40" rx="0.4" fill="#f1e8d9"/><rect x="2.60" y="10.60" width="6.20" height="8.40" rx="0.4" fill="#d8c8ae"/><path d="M9.40 18.90L9.40 14.20L14.60 14.20L14.60 18.90Z" fill="#3f444c"/><path d="M9.40 14.40a2.60 2.60 0 0 1 5.20 0Z" fill="#3f444c"/><rect x="2.60" y="8.40" width="2.60" height="2.40" fill="#9ba7b4"/><rect x="7.20" y="8.40" width="2.60" height="2.40" fill="#9ba7b4"/><rect x="11.80" y="8.40" width="2.60" height="2.40" fill="#9ba7b4"/><rect x="16.40" y="8.40" width="2.60" height="2.40" fill="#9ba7b4"/></g></svg>