<svg id="Capa_1" enable-background="new 0 0 510.798 510.798" viewBox="0 0 128 128" xmlns="http://www.w3.org/2000/svg"><g id="__normalized__" transform="translate(0 0) scale(2 2)"><g id="__normalized__" transform="translate(0 0) scale(0.12529414758867496 0.12529414758867496)"><g><path d="m169.979 223.8h46.59v186.31h-46.59z" fill="#afb4c8"/><path d="m169.979 223.8h23.295v186.31h-23.295z" fill="#7e8596"/><path d="m53.494 130.551 201.905-90.16 201.904 90.16z" fill="#e9edf5"/><g><path d="m457.303 130.551-201.905-90.16-201.905 90.16v-29.74l195.348-91.866c4.161-1.921 8.955-1.921 13.116 0l195.347 91.865v29.741z" fill="#afb4c8"/></g><path d="m22.432 472.235h465.934v31.062h-465.934z" fill="#e9edf5"/><path d="m53.494 481.298v-9.062h-31.062v31.062h465.934v-15h-427.872c-3.866 0-7-3.134-7-7z" fill="#cdd2e1"/><path d="m53.494 441.153h403.809v31.062h-403.809z" fill="#e9edf5"/><path d="m83.494 450.215v-9.062h-30v31.062h403.809v-15h-366.809c-3.866 0-7-3.134-7-7z" fill="#cdd2e1"/><path d="m69.025 410.111h62.125v31.062h-62.125z" fill="#e9edf5"/><path d="m69.025 410.111h31.062v31.062h-31.062z" fill="#cdd2e1"/><path d="m69.025 192.736h62.125v31.062h-62.125z" fill="#e9edf5"/><path d="m69.025 192.736h31.062v31.062h-31.062z" fill="#cdd2e1"/><path d="m76.791 223.798h46.593v186.313h-46.593z" fill="#afb4c8"/><path d="m76.791 223.798h23.297v186.313h-23.297z" fill="#7e8596"/><path d="m162.212 410.111h62.125v31.062h-62.125z" fill="#e9edf5"/><path d="m162.212 410.111h31.062v31.062h-31.062z" fill="#cdd2e1"/><path d="m162.212 192.736h62.125v31.062h-62.125z" fill="#e9edf5"/><path d="m162.212 192.736h31.062v31.062h-31.062z" fill="#cdd2e1"/><path d="m286.461 410.111h62.125v31.062h-62.125z" fill="#e9edf5"/><path d="m286.461 410.111h31.099v31.062h-31.099z" fill="#cdd2e1"/><path d="m286.461 192.736h62.125v31.062h-62.125z" fill="#e9edf5"/><path d="m286.461 192.736h31.099v31.062h-31.099z" fill="#cdd2e1"/><path d="m294.56 223.798h46.593v186.313h-46.593z" fill="#afb4c8"/><path d="m294.56 223.798h23v186.313h-23z" fill="#7e8596"/><path d="m379.648 410.111h62.125v31.062h-62.125z" fill="#e9edf5"/><path d="m379.648 410.111h31.062v31.062h-31.062z" fill="#cdd2e1"/><path d="m379.648 192.736h62.125v31.062h-62.125z" fill="#e9edf5"/><path d="m379.648 192.736h31.062v31.062h-31.062z" fill="#cdd2e1"/><path d="m387.413 223.798h46.593v186.313h-46.593z" fill="#afb4c8"/><path d="m387.413 223.798h23v186.313h-23z" fill="#7e8596"/><path d="m53.494 130.551h403.809v62.125h-403.809z" fill="#afb4c8"/><path d="m193.274 99.488h124.249v62.125h-124.249z" fill="#9bc5ff"/><path d="m488.366 464.735h-23.562v-23.583c0-4.142-3.358-7.5-7.5-7.5h-8.031v-23.542c0-4.142-3.358-7.5-7.5-7.5h-.264v-38.281c0-4.142-3.358-7.5-7.5-7.5s-7.5 3.358-7.5 7.5v38.28h-31.6v-171.309h31.6v100.34c0 4.142 3.358 7.5 7.5 7.5s7.5-3.358 7.5-7.5v-100.342h.264c4.142 0 7.5-3.358 7.5-7.5v-23.619h8.026c4.142 0 7.5-3.358 7.5-7.5v-91.87c0-2.906-1.679-5.55-4.309-6.787l-70.56-33.18c-3.747-1.761-8.215-.153-9.979 3.596-1.763 3.749-.153 8.216 3.596 9.979l66.251 31.154v13.417l-191.341-85.447c-1.946-.869-4.17-.869-6.116 0l-191.342 85.446v-13.417l190.996-89.817c2.164-1.003 4.646-1.003 6.772-.017l95.18 44.76c3.748 1.762 8.215.153 9.979-3.595 1.763-3.749.153-8.216-3.595-9.979l-95.216-44.776c-6.174-2.864-13.257-2.863-19.468.017l-195.34 91.86c-2.629 1.237-4.308 3.881-4.308 6.787v91.87c0 4.142 3.358 7.5 7.5 7.5h8.026v23.619c0 4.142 3.358 7.5 7.5 7.5h.266v171.312h-.266c-4.142 0-7.5 3.358-7.5 7.5v23.542h-8.031c-4.142 0-7.5 3.358-7.5 7.5v23.583h-23.562c-4.142 0-7.5 3.358-7.5 7.5v31.062c0 4.142 3.358 7.5 7.5 7.5h465.934c4.142 0 7.5-3.358 7.5-7.5v-31.062c0-4.143-3.358-7.501-7.5-7.501zm-271.797-170.025c-4.142 0-7.5 3.358-7.5 7.5v100.4h-31.59v-171.31h31.59v38.22c0 4.142 3.358 7.5 7.5 7.5s7.5-3.358 7.5-7.5v-38.222h.268c4.142 0 7.5-3.358 7.5-7.5v-23.619h47.124v23.619c0 4.142 3.358 7.5 7.5 7.5h.266v171.312h-.266c-4.142 0-7.5 3.358-7.5 7.5v23.542h-47.124v-23.542c0-4.142-3.358-7.5-7.5-7.5h-.268v-100.4c0-4.142-3.358-7.5-7.5-7.5zm-46.857-78.412v-16.062h47.125v16.062zm124.249 217.355v-16.042h47.125v16.042zm39.359-31.042h-31.594v-171.313h31.594zm-39.359-186.313v-16.062h47.125v16.062zm-124.249 201.313h47.125v16.042h-47.125zm-2.865 31.062h177.103l8.019 16.042h-193.143zm192.63 31.062 8.03 16.062h-224.222l8.031-16.062zm90.327-15.02h-81.065l-8.029-16.062h89.094zm-62.656-31.062v-16.042h47.125v16.042zm47.124-217.355h-47.125v-16.062h47.125zm-54.624 15h.261v171.312h-.261c-4.142 0-7.5 3.358-7.5 7.5v23.542h-16.062v-23.542c0-4.142-3.358-7.5-7.5-7.5h-.265v-171.312h.265c4.142 0 7.5-3.358 7.5-7.5v-23.619h16.062v23.619c0 4.142 3.358 7.5 7.5 7.5zm-124.249-182.695 166.711 74.447h-97.087v-23.561c0-4.142-3.358-7.5-7.5-7.5h-124.249c-4.142 0-7.5 3.358-7.5 7.5v23.561h-97.086zm-54.625 58.386h109.249v47.125h-109.249zm-139.775 31.061h124.775v23.563c0 4.142 3.358 7.5 7.5 7.5h124.249c4.142 0 7.5-3.358 7.5-7.5v-23.563h124.775v47.13h-388.8v-47.13zm93.713 62.129v23.619c0 4.142 3.358 7.5 7.5 7.5h.267v171.312h-.267c-4.142 0-7.5 3.358-7.5 7.5v23.542h-16.062v-23.542c0-4.142-3.358-7.5-7.5-7.5h-.266v-171.312h.266c4.142 0 7.5-3.358 7.5-7.5v-23.619zm-78.187 16.119v-16.062h47.125v16.062zm7.766 15h31.593v171.312h-31.593zm-7.766 186.313h47.125v16.042h-47.125zm-15.531 31.042h89.093l-8.031 16.062h-81.062zm-31.062 31.082h104.614l-8.031 16.062h-96.583zm450.934 16.063h-96.589l-8.03-16.062h104.618v16.062z"/></g></g></g></svg>