<svg id="Capa_1" enable-background="new 0 0 511.998 511.998" viewBox="0 0 128 128" xmlns="http://www.w3.org/2000/svg"><g id="__normalized__" transform="translate(0 0) scale(2 2)"><g id="__normalized__" transform="translate(0 0) scale(0.12500048828315735 0.12500048828315735)"><g><circle cx="255.999" cy="85.887" fill="#ffee6e" r="31.062"/><path d="m254.937 85.887c0-11.715 6.486-21.915 16.062-27.206-4.447-2.457-9.56-3.856-15-3.856-17.155 0-31.062 13.907-31.062 31.062s13.907 31.062 31.062 31.062c5.44 0 10.553-1.399 15-3.856-9.576-5.291-16.062-15.491-16.062-27.206z" fill="#ffda45"/><path d="m54.094 458.634h403.809v46.532h-403.809z" fill="#e9edf5"/><path d="m85.157 470.167v-11.532h-31.063v46.532h403.809v-20h-357.746c-8.285 0-15-6.716-15-15z" fill="#cdd2e1"/><path d="m85.157 411.982h341.685v46.657h-341.685z" fill="#e9edf5"/><path d="m116.021 424.503v-12.522h-30.864v46.657h341.685v-19.136h-295.82c-8.285.001-15.001-6.714-15.001-14.999z" fill="#cdd2e1"/><path d="m116.219 365.488h279.56v46.492h-279.56z" fill="#e9edf5"/><path d="m147.281 376.98v-11.492h-31.062v46.492h279.56v-20h-233.498c-8.284 0-15-6.716-15-15z" fill="#cdd2e1"/><path d="m147.281 318.793h217.436v46.693h-217.436z" fill="#e9edf5"/><path d="m178.339 330.487v-11.693h-31.058v46.693h217.436v-20h-171.378c-8.284 0-15-6.716-15-15z" fill="#cdd2e1"/><path d="m178.343 272.463h155.311v46.326h-155.311z" fill="#e9edf5"/><path d="m209.406 283.79v-11.326h-31.062v46.326h155.311v-20h-109.249c-8.285 0-15-6.716-15-15z" fill="#cdd2e1"/><path d="m209.406 210.339h93.187v62.125h-93.187z" fill="#7d8495"/><path d="m240.468 241.31h31.062v31.153h-31.062z" fill="#fff"/><path d="m318.124 505.167h-124.249l31.062-232.704h62.124z" fill="#afb4c8"/><g><path d="m457.899 450.468h-23.56v-39.06c0-4.142-3.358-7.5-7.5-7.5h-23.56v-39.09c0-4.142-3.358-7.5-7.5-7.5h-23.56v-39.199c0-4.142-3.358-7.5-7.5-7.5h-23.56v-38.831c0-4.142-3.358-7.5-7.5-7.5h-23.57v-47.117h8.03c4.142 0 7.5-3.358 7.5-7.5s-3.358-7.5-7.5-7.5h-45.78c-4.142 0-7.5 3.358-7.5 7.5s3.358 7.5 7.5 7.5h22.75v47.117h-16.059v-23.649c0-4.142-3.358-7.5-7.5-7.5h-31.062c-4.142 0-7.5 3.358-7.5 7.5v23.649h-16.059v-47.117h22.75c4.142 0 7.5-3.358 7.5-7.5s-3.358-7.5-7.5-7.5h-45.78c-4.142 0-7.5 3.358-7.5 7.5s3.358 7.5 7.5 7.5h8.03v47.117h-23.57c-4.142 0-7.5 3.358-7.5 7.5v38.838h-23.56c-4.142 0-7.5 3.358-7.5 7.5v39.191h-23.56c-4.142 0-7.5 3.358-7.5 7.5v38.99h-23.56c-4.142 0-7.5 3.358-7.5 7.5v39.16h-23.56c-4.142 0-7.5 3.358-7.5 7.5v46.53c0 4.142 3.358 7.5 7.5 7.5h403.8c4.142 0 7.5-3.358 7.5-7.5v-46.53c0-4.141-3.358-7.499-7.5-7.499zm-100.68-124.849v31.699h-51.175l-4.231-31.695zm-31.06-46.331v31.331h-26.349l-4.182-31.327zm-78.191-31.149h16.062v16.149h-16.062zm-62.129 31.149 30.531.003-4.182 31.331h-26.348v-31.334zm-31.06 46.338h55.406l-4.23 31.691h-51.175v-31.691zm38.741 124.842h-29.891c-4.142 0-7.5 3.358-7.5 7.5s3.358 7.5 7.5 7.5h27.889l-4.209 31.53h-125.71v-31.53h69.34c4.142 0 7.5-3.358 7.5-7.5 0-.001 0-.002 0-.002s0-.002 0-.002c0-4.142-3.358-7.5-7.5-7.5h-38.28v-31.655h105.087zm-69.801-46.66v-31.49h80.233l-4.203 31.49zm78.723 93.188 29.06-217.704h48.993l29.06 217.704zm111.81-78.188h24.247c4.142 0 7.5-3.358 7.5-7.5s-3.358-7.5-7.5-7.5h-26.249l-4.203-31.49h80.233v31.49h-17.1c-4.142 0-7.5 3.358-7.5 7.5 0 .017 0 .033.001.05 0 .017-.001.033-.001.05 0 4.142 3.358 7.5 7.5 7.5h48.16v31.47h-100.874zm136.147 78.19h-125.71l-4.209-31.53h129.919z"/><path d="m279.061 465.934h-46.124c-4.142 0-7.5 3.358-7.5 7.5s3.358 7.5 7.5 7.5h46.124c4.142 0 7.5-3.358 7.5-7.5s-3.358-7.5-7.5-7.5z"/><path d="m238.416 438.223h35.167c4.142 0 7.5-3.358 7.5-7.5s-3.358-7.5-7.5-7.5h-35.167c-4.142 0-7.5 3.358-7.5 7.5s3.357 7.5 7.5 7.5z"/><path d="m244.235 393.832h23.528c4.142 0 7.5-3.358 7.5-7.5s-3.358-7.5-7.5-7.5h-23.528c-4.142 0-7.5 3.358-7.5 7.5s3.358 7.5 7.5 7.5z"/><path d="m246.986 348.98h18.025c4.142 0 7.5-3.358 7.5-7.5s-3.358-7.5-7.5-7.5h-18.025c-4.142 0-7.5 3.358-7.5 7.5s3.358 7.5 7.5 7.5z"/><path d="m248.666 310.071h14.667c4.142 0 7.5-3.358 7.5-7.5s-3.358-7.5-7.5-7.5h-14.667c-4.142 0-7.5 3.358-7.5 7.5s3.357 7.5 7.5 7.5z"/><path d="m255.999 123.779c21.263 0 38.562-17.299 38.562-38.562s-17.299-38.562-38.562-38.562c-21.264 0-38.562 17.299-38.562 38.562s17.298 38.562 38.562 38.562zm0-62.125c12.992 0 23.562 10.57 23.562 23.562s-10.57 23.562-23.562 23.562-23.562-10.57-23.562-23.562 10.57-23.562 23.562-23.562z"/><path d="m255.999 30.531c4.142 0 7.5-3.358 7.5-7.5v-15.531c0-4.142-3.358-7.5-7.5-7.5s-7.5 3.358-7.5 7.5v15.531c0 4.142 3.358 7.5 7.5 7.5z"/><path d="m248.499 147.28v15.531c0 4.142 3.358 7.5 7.5 7.5s7.5-3.358 7.5-7.5v-15.531c0-4.142-3.358-7.5-7.5-7.5s-7.5 3.358-7.5 7.5z"/><path d="m206.767 46.53c3.535 2.929 7.071 2.929 10.606 0 2.929-2.929 2.929-7.677 0-10.606l-10.982-10.982c-2.928-2.929-7.677-2.929-10.606 0s-2.929 7.677 0 10.606z"/><path d="m305.231 123.781c-2.929-2.929-7.678-2.929-10.606 0-2.929 2.929-2.929 7.678 0 10.606l10.982 10.982c3.535 2.929 7.071 2.929 10.606 0 2.929-2.929 2.929-7.678 0-10.606z"/><path d="m178.343 92.656h15.531c4.142 0 7.5-3.358 7.5-7.5s-3.358-7.5-7.5-7.5h-15.531c-4.142 0-7.5 3.358-7.5 7.5s3.358 7.5 7.5 7.5z"/><path d="m310.624 85.156c0 4.142 3.358 7.5 7.5 7.5h15.531c4.142 0 7.5-3.358 7.5-7.5s-3.358-7.5-7.5-7.5h-15.531c-4.143 0-7.5 3.358-7.5 7.5z"/><path d="m206.767 123.781-10.982 10.982c-2.929 2.929-2.929 7.678 0 10.606 3.535 2.929 7.071 2.929 10.606 0l10.982-10.982c2.929-2.929 2.929-7.678 0-10.606-2.928-2.928-7.677-2.928-10.606 0z"/><path d="m305.231 46.53 10.982-10.982c2.929-2.929 2.929-7.678 0-10.606-2.929-2.93-7.678-2.929-10.606 0l-10.982 10.982c-2.929 2.929-2.922 7.67 0 10.606 2.874 2.889 7.374 3.389 10.606 0z"/></g></g></g></g></svg>