<svg id="Capa_1" enable-background="new 0 0 512 512" viewBox="0 0 128 128" xmlns="http://www.w3.org/2000/svg"><g id="__normalized__" transform="translate(0 0) scale(0.25 0.25)"><g><g><circle cx="256" cy="255.988" fill="#eab7a2" r="246"/></g><g><circle cx="256" cy="255.988" fill="#d98964" r="180.53"/></g><g><circle cx="256" cy="255.988" fill="#ffc135" r="108.015"/></g><g><circle cx="256" cy="255.988" fill="#838eb1" r="52.674"/></g><g><path d="m331.89 179.118c-.01-.01-.02-.01-.03-.02-19.5-19.24-46.29-31.12-75.86-31.12-29.6 0-56.42 11.91-75.93 31.19l-.14.135 76.07-103.845h.33z" fill="#ffce62"/></g><g><path d="m329.18 335.438-73.36 100.11h-.33l-73.6-100.97c19.34 18.24 45.42 29.42 74.11 29.42 28.24 0 53.94-10.83 73.18-28.56z" fill="#ffce62"/></g><g><path d="m435.947 255.588v.33l-100.55 73.31c17.76-19.25 28.61-44.98 28.61-73.24 0-29.69-11.98-56.57-31.36-76.1z" fill="#ffce62"/></g><g><path d="m179.19 180.038c-19.28 19.51-31.2 46.34-31.2 75.95 0 28.29 10.87 54.03 28.66 73.29l-100.78-73.87v-.33l103.761-75.478s-.331.258-.441.438z" fill="#ffce62"/></g><g><path d="m451.639 90.871c-4.597-5.441-9.412-10.667-14.417-15.679-.069-.074-.13-.152-.202-.224-.053-.053-.11-.097-.164-.148-36.814-36.72-84.133-61.599-135.326-70.791-5.433-.976-10.634 2.639-11.61 8.076-.976 5.436 2.64 10.634 8.075 11.61 45.397 8.151 85.763 28.947 117.763 58.374l-32.357 32.357c-33.679-30.346-78.201-48.874-126.971-48.983-.034 0-.066-.006-.1-.006h-.33c-.004 0-.007.001-.01.001-48.935.003-93.614 18.555-127.39 48.986l-32.349-32.348c31.958-29.39 72.256-50.173 117.573-58.347 5.435-.98 9.046-6.181 8.065-11.616-.98-5.435-6.176-9.042-11.616-8.066-51.118 9.22-98.365 34.084-135.13 70.755-.053.051-.111.095-.163.147-.073.073-.135.152-.204.226-5.027 5.034-9.862 10.284-14.477 15.751-38.884 46.06-60.299 104.673-60.299 165.042 0 68.38 26.629 132.667 74.98 181.02 48.353 48.352 112.64 74.98 181.02 74.98s132.667-26.628 181.02-74.98c48.351-48.353 74.98-112.64 74.98-181.02 0-60.404-21.437-119.043-60.361-165.117zm40.361 165.117c0 61.476-23.636 117.528-62.287 159.571l-32.17-32.17c30.434-33.779 48.987-78.462 48.987-127.401s-18.553-93.622-48.987-127.401l32.348-32.349c38.823 42.306 62.109 98.64 62.109 159.75zm-405.386 19.693s85.393 62.478 86.067 62.77c.295.7 62.964 86.846 62.964 86.846-78.013-9.322-140.008-71.514-149.031-149.616zm148.741-188.97-62.523 85.314-86.041 62.717c9.647-77.278 71.204-138.653 148.564-148.031zm189.926 148.663-85.889-62.941-62.46-85.69c77.436 9.521 138.971 71.152 148.349 148.631zm-57.482-17.328 51.428 37.687-51.154 37.296c3.903-11.83 5.935-24.313 5.935-37.041-.001-13.098-2.125-25.878-6.209-37.942zm-39.752 104.401c-18.193 19.719-44.766 31.55-72.047 31.55-27.247 0-53.731-11.727-72.004-31.505-16.771-18.156-26.006-41.774-26.006-66.505 0-25.968 10.055-50.445 28.312-68.921 18.29-18.52 43.679-29.088 69.697-29.088 25.967 0 51.259 10.523 69.548 28.953 18.353 18.495 28.459 43.019 28.459 69.057.001 24.711-9.219 48.314-25.959 66.459zm-72.371 96.379-37.085-50.875c11.929 3.977 24.535 6.047 37.409 6.047 12.65 0 25.058-2.006 36.823-5.864zm-37.655-274.627 38.123-52.02 37.945 52.056c-12.109-4.116-24.94-6.257-38.089-6.257-13.109 0-25.902 2.128-37.979 6.221zm-74.154 148.651-51.277-37.586 51.788-37.749c-4.201 12.222-6.388 25.185-6.388 38.472 0 12.664 2.012 25.086 5.877 36.863zm194.765 45.836c.928-.318 86.715-62.664 86.715-62.664-9.19 78.171-71.456 140.328-149.676 149.355.001-.001 62.641-85.76 62.961-86.691zm-256.515-242.439 32.34 32.34c-30.434 33.778-48.987 78.462-48.987 127.401s18.553 93.622 48.987 127.401l-32.17 32.17c-38.651-42.043-62.287-98.096-62.287-159.571 0-61.095 23.291-117.431 62.117-159.741zm14.312 333.454 32.17-32.17c33.779 30.434 78.462 48.987 127.401 48.987s93.622-18.553 127.401-48.986l32.17 32.17c-42.042 38.651-98.095 62.287-159.571 62.287-61.476-.001-117.529-23.638-159.571-62.288z"/><path d="m256 193.313c-34.559 0-62.674 28.116-62.674 62.674s28.115 62.674 62.674 62.674 62.674-28.116 62.674-62.674-28.115-62.674-62.674-62.674zm0 105.349c-23.53 0-42.674-19.144-42.674-42.674s19.144-42.675 42.674-42.675 42.674 19.144 42.674 42.674-19.144 42.675-42.674 42.675z"/><path d="m246.77 13.807c2.065 5.038 8.038 7.499 13.061 5.41 5.026-2.091 7.491-8.021 5.399-13.05-2.09-5.027-8.01-7.502-13.05-5.41-5.025 2.087-7.508 8.015-5.41 13.05z"/></g></g></g></svg>