<svg id="Capa_1" enable-background="new 0 0 511.996 511.996" viewBox="0 0 128 128" xmlns="http://www.w3.org/2000/svg"><g id="__normalized__" transform="translate(0 0) scale(0.2500019531402589 0.2500019531402589)"><g><path d="m7.5 434.037h496.996v31.387h-496.996z" fill="#cfa388"/><path d="m7.5 434.037h30v31.387h-30z" fill="#b2876d"/><path d="m7.5 371.925h496.996v62.112h-496.996z" fill="#95e8c8"/><path d="m7.5 371.925h30v62.112h-30z" fill="#06ccab"/><path d="m23.031 371.925h46.593v-179.373c0-3.866-3.134-7-7-7h-21.994c-3.706 0-6.77 2.888-6.988 6.588z" fill="#afb4c8"/><path d="m60.63 185.552h-20c-3.706 0-6.77 2.888-6.988 6.588l-10.611 179.785h20l10.611-179.786c.219-3.699 3.282-6.587 6.988-6.587z" fill="#7e8596"/><path d="m488.965 371.925h-46.593v-179.373c0-3.866 3.134-7 7-7h21.994c3.706 0 6.77 2.888 6.988 6.588z" fill="#afb4c8"/><path d="m132.191 371.925h46.683c8.284 0 15-6.756 15-15.09v-218.318c0-8.334-6.716-15.09-15-15.09h-33.038c-7.919 0-14.474 6.192-14.97 14.143l-13.646 218.319c-.543 8.689 6.316 16.036 14.971 16.036z" fill="#afb4c8"/><path d="m147.22 355.889 13.645-218.319c.497-7.951 7.052-14.143 14.97-14.143h-30c-7.919 0-14.474 6.192-14.97 14.143l-13.645 218.319c-.543 8.689 6.316 16.037 14.97 16.037h30c-8.654-.001-15.513-7.348-14.97-16.037z" fill="#7e8596"/><path d="m364.274 371.925h-46.683c-8.284 0-15-6.756-15-15.09v-218.318c0-8.334 6.716-15.09 15-15.09h33.038c7.919 0 14.474 6.192 14.97 14.143l13.645 218.319c.544 8.689-6.315 16.036-14.97 16.036z" fill="#afb4c8"/><path d="m332.591 356.835v-218.318c0-8.334 6.716-15.09 15-15.09h-30c-8.284 0-15 6.756-15 15.09v218.319c0 8.334 6.716 15.09 15 15.09h30c-8.284-.001-15-6.757-15-15.091z" fill="#7e8596"/><path d="m396.309 123.427h-280.622c-8.284 0-15-6.716-15-15v-32.856c0-7.993 6.268-14.582 14.251-14.981l280.622-14.031c8.568-.428 15.749 6.403 15.749 14.981v46.887c0 8.284-6.715 15-15 15z" fill="#afb4c8"/><path d="m130.687 108.427v-32.856c0-7.993 6.564-16.095 14.547-16.494l-30.296 1.513c-7.983.399-14.251 6.988-14.251 14.981v32.856c0 8.284 6.716 15 15 15h30c-8.284 0-15-6.716-15-15z" fill="#7e8596"/><path d="m504.496 364.425h-8.46l-10.195-172.727c-.451-7.653-6.809-13.647-14.475-13.647h-21.995c-7.995 0-14.5 6.505-14.5 14.5v171.874h-49.971c1.409-3.242 2.057-6.804 1.833-10.384l-9.01-143.29c-.261-4.133-3.796-7.262-7.956-7.015-4.134.26-7.274 3.822-7.015 7.956l9.01 143.288c-.199 4.813-2.694 7.47-7.484 7.971h-46.69c-4.136 0-7.5-3.364-7.5-7.5v-95.641l16.065 8.033v26.427c0 1.989.79 3.896 2.196 5.304l15.531 15.531c3.536 2.928 7.072 2.928 10.607 0 2.929-2.93 2.929-7.678 0-10.607l-13.335-13.334v-27.955c0-2.841-1.605-5.438-4.146-6.708l-26.92-13.46v-104.609c0-4.136 3.364-7.5 7.5-7.5h33.04c3.948 0 7.235 3.085 7.484 7.021l2.591 41.11c.261 4.134 3.832 7.257 7.957 7.014 4.134-.261 7.274-3.823 7.014-7.957l-2.591-41.112c-.134-2.121-.562-4.159-1.242-6.076h24.467c12.406 0 22.5-10.094 22.5-22.5v-46.89c-1.448-14.247-9.323-21.737-23.625-22.47l-280.619 14.03c-11.986.6-21.375 10.47-21.375 22.47v32.86c0 12.406 10.094 22.5 22.5 22.5h8.933c-.68 1.919-1.108 3.96-1.241 6.083l-13.646 217.021c-.225 3.581.423 7.146 1.832 10.389h-34.437v-92.644c0-4.143-3.357-7.5-7.5-7.5s-7.5 3.357-7.5 7.5v92.641h-31.144l4.135-70.076 6.229 5.531c3.616 2.717 7.145 2.507 10.588-.629 2.75-3.098 2.469-7.838-.629-10.588l-15.063-13.374 4.853-82.234h21.031v46.05c0 4.143 3.357 7.5 7.5 7.5s7.5-3.357 7.5-7.5v-46.55c0-7.995-6.505-14.5-14.5-14.5h-22c-7.661 0-14.021 5.993-14.478 13.648l-10.193 172.725h-8.457c-4.143 0-7.5 3.357-7.5 7.5v93.499c0 4.143 3.357 7.5 7.5 7.5h496.996c4.143 0 7.5-3.357 7.5-7.5v-93.499c0-4.142-3.357-7.5-7.5-7.5zm-54.625-171.374h21.023l3.048 51.642-13.504 13.138c-2.97 2.889-3.034 7.637-.146 10.605 3.515 2.978 7.05 3.027 10.605.146l4.213-4.099 5.898 99.941h-31.138v-171.373zm-270.74-62.119c4.017.136 7.243 3.446 7.243 7.495v73.551l-26.917 13.458c-2.54 1.271-4.146 3.867-4.146 6.708v43.266l-13.378 13.599c-2.904 2.953-2.866 7.701.087 10.606 3.547 2.9 7.083 2.871 10.606-.087l15.531-15.788c1.38-1.403 2.153-3.292 2.153-5.26v-41.7l16.062-8.031v126.7c0 4.136-3.364 7.5-7.5 7.5h-46.682c-4.795-.497-7.29-3.154-7.485-7.971l13.646-217.021c.243-3.856 3.395-6.894 7.229-7.024h33.551zm22.243 224.517v-217.022c0-2.627-.453-5.15-1.284-7.495h38.558c4.143 0 7.5-3.357 7.5-7.5s-3.357-7.5-7.5-7.5h-122.96c-4.136 0-7.5-3.364-7.5-7.5v-32.86c0-3.999 3.13-7.289 7.125-7.489l75.014-3.75 13.133 17.074c1.419 1.846 3.616 2.928 5.944 2.928h31.062c4.143 0 7.5-3.357 7.5-7.5s-3.357-7.5-7.5-7.5h-27.369l-4.548-5.913 105.829-5.291 13.15 18.604c1.406 1.988 3.689 3.171 6.125 3.171h27.25l12.312 16.88c3.268 3.459 6.761 4.006 10.479 1.64 3.347-2.441 4.08-7.133 1.64-10.479l-14.56-19.96c-1.412-1.936-3.664-3.08-6.06-3.08h-27.18l-5.415-7.662 63.813-3.19c4.767.244 7.392 2.741 7.874 7.489v46.891c0 4.136-3.364 7.5-7.5 7.5h-124.97c-4.143 0-7.5 3.357-7.5 7.5s3.357 7.5 7.5 7.5h25.035c-.832 2.347-1.285 4.872-1.285 7.5v217.02c0 3.188.667 6.223 1.868 8.974h-97.45c1.203-2.755 1.87-5.791 1.87-8.98zm295.622 23.976v47.111h-481.996v-47.111zm-481.996 78.499v-15.724h481.996v15.725h-481.996z"/></g></g></svg>