<svg id="Capa_1" enable-background="new 0 0 511.998 511.998" viewBox="0 0 64 64" xmlns="http://www.w3.org/2000/svg"><g id="__normalized__" transform="translate(0 0) scale(0.12500048828315735 0.12500048828315735)"><g><path d="m100.687 333.658h-31.063c-34.31 0-62.124-27.814-62.124-62.124h93.187z" fill="#e9edf5"/><path d="m37.5 271.534h-30c0 34.31 27.814 62.125 62.125 62.125h30c-34.311-.001-62.125-27.815-62.125-62.125z" fill="#cdd2e1"/><path d="m162.811 333.658v-124.249h310.623c0 34.061-27.528 61.718-61.589 61.877l-1.072.005c-34.061.159-61.589 28.306-61.589 62.367z" fill="#7d8495"/><path d="m162.811 209.409h30v124.249h-30z" fill="#636978"/><path d="m100.687 426.844h310.623v31.062h-310.623z" fill="#7d8495"/><path d="m100.687 426.844h30v31.062h-30z" fill="#636978"/><path d="m380.247 426.845h-248.498c19.889-19.889 31.062-46.864 31.062-74.991v-18.196h186.374v18.196c0 28.127 11.173 55.102 31.062 74.991z" fill="#afb4c8"/><path d="m192.811 351.854v-18.196h-30v18.196c0 28.127-11.173 55.102-31.062 74.991h30c19.889-19.889 31.062-46.864 31.062-74.991z" fill="#7e8596"/><path d="m271.529 178.349h-31.062c-8.578 0-15.531-6.954-15.531-15.531v-93.191c0-8.578 6.954-15.531 15.531-15.531h31.062c8.578 0 15.531 6.954 15.531 15.531v93.191c0 8.578-6.953 15.531-15.531 15.531z" fill="#7d8495"/><path d="m254.936 162.818v-93.191c0-8.578 6.954-15.531 15.531-15.531h-30c-8.578 0-15.531 6.953-15.531 15.531v93.191c0 8.578 6.953 15.531 15.531 15.531h30c-8.578 0-15.531-6.953-15.531-15.531z" fill="#636978"/><path d="m488.965 131.754h-201.905v-31.062h201.905c8.578 0 15.531 6.954 15.531 15.531 0 8.577-6.953 15.531-15.531 15.531z" fill="#cfa388"/><path d="m307.06 100.692h-20v31.062h201.905c8.4 0 15.242-6.668 15.522-15h-181.364c-8.871 0-16.063-7.192-16.063-16.062z" fill="#b2876d"/><path d="m100.687 240.472h62.125v93.187h-62.125z" fill="#afb4c8"/><path d="m100.687 240.472h30v93.187h-30z" fill="#7e8596"/><g><path d="m473.438 201.912h-201.1c-4.143 0-7.5 3.358-7.5 7.5s3.357 7.5 7.5 7.5h193.083c-3.66 26.327-26.306 46.749-53.606 46.875-35.029-.236-65.94 26.904-69.724 61.904l-171.779.452-.004-109.23h69.351c4.143 0 7.5-3.358 7.5-7.5s-3.357-7.5-7.5-7.5h-76.851c-4.143 0-7.5 3.358-7.5 7.5v23.56h-54.621c-4.143 0-7.5 3.358-7.5 7.5v23.562h-85.687c-4.143 0-7.5 3.358-7.5 7.5 0 38.391 31.233 69.624 69.624 69.624h85.684c1.561 28.557-6.851 57.061-26.732 78.184h-27.887c-4.143 0-7.5 3.358-7.5 7.5v31.06c0 4.142 3.357 7.5 7.5 7.5h310.619c4.143 0 7.5-3.358 7.5-7.5v-31.06c0-4.142-3.357-7.5-7.5-7.5h-27.888c-17.263-18.341-26.732-42.185-26.732-67.485v-18.195c0-30.276 24.909-55.061 55.195-54.875 38.077-.176 69.055-31.298 69.055-69.375 0-4.143-3.357-7.501-7.5-7.501zm-380.251 124.246h-23.563c-27.575 0-50.444-20.541-54.111-47.125h77.674zm15 0v-78.187h47.121v78.187zm255.704 93.184h-29.423c-4.143 0-7.5 3.358-7.5 7.5s3.357 7.5 7.5 7.5h69.34v16.06h-295.62v-16.06h193.59c4.143 0 7.5-3.358 7.5-7.5s-3.357-7.5-7.5-7.5h-153.673c16.735-22.552 23.334-50.421 22.202-78.18h171.381c-1.298 27.784 5.45 55.604 22.203 78.18z"/><path d="m488.968 93.192h-61.319c-4.143 0-7.5 3.358-7.5 7.5s3.357 7.5 7.5 7.5h61.319c4.428 0 8.03 3.602 8.03 8.03s-3.603 8.03-8.03 8.03h-194.407v-16.06h100.407c4.143 0 7.5-3.358 7.5-7.5s-3.357-7.5-7.5-7.5h-100.407v-23.565c0-12.699-10.332-23.031-23.031-23.031h-31.062c-12.699 0-23.031 10.332-23.031 23.031v93.191c0 12.699 10.332 23.031 23.031 23.031h31.062c12.699 0 23.031-10.332 23.031-23.031v-23.567h194.407c12.699 0 23.03-10.331 23.03-23.03s-10.331-23.029-23.03-23.029zm-209.407 69.626c0 4.428-3.603 8.031-8.031 8.031h-31.062c-4.429 0-8.031-3.603-8.031-8.031v-93.191c0-4.428 3.603-8.031 8.031-8.031h31.062c4.429 0 8.031 3.603 8.031 8.031z"/></g></g></g></svg>