<svg id="Capa_1" enable-background="new 0 0 512 512" viewBox="0 0 64 64" xmlns="http://www.w3.org/2000/svg"><g id="__normalized__" transform="translate(0 0) scale(0.125 0.125)"><g><path d="m136.138 444.917-13.303-19.351c-7.659-11.141-18.034-20.143-30.143-26.154l-41.07-20.388c-27.028-13.418-44.122-40.988-44.122-71.163v-88.044c0-24.112 10.95-46.919 29.765-61.997l91.802-73.569c10.377-8.316 22.675-13.894 35.768-16.223l160.463-28.548c27.547-4.901 55.64 5.049 73.962 26.195l85.838 99.072c12.514 14.444 19.403 32.914 19.403 52.025v80.223c0 21.736-8.906 42.523-24.642 57.518l-33.987 32.385c-9.731 9.273-16.951 20.863-20.983 33.686l-.16.508c-8.445 26.855-32.892 45.478-61.025 46.486l-170.411 6.109c-22.719.814-44.277-10.038-57.155-28.77z" fill="#f2b88f"/></g><g><path d="m337.426 425.561c-18.383-13.532-111.319-9.958-149.356-26.298-38.037-16.341-83.383-169.284-67.072-196.978s62.216-123.703 96.836-143.686l-52.999 9.429c-13.092 2.329-25.391 7.907-35.767 16.223l-91.803 73.569c-18.815 15.079-29.765 37.885-29.765 61.997v88.044c0 30.175 17.094 57.745 44.122 71.162l41.07 20.388c12.109 6.011 22.484 15.013 30.143 26.154l13.303 19.351c12.878 18.733 34.436 29.585 57.154 28.77l170.411-6.109c0 .001-7.894-28.484-26.277-42.016z" fill="#e3a67b"/></g><g><path d="m285.587 462.874-48.028 1.722 6.809-18.205c1.431-3.825 4.647-6.715 8.605-7.729l84.585-21.672c8.559-2.193 15.584-8.415 18.795-16.646l12.106-31.036c1.505-3.859-.403-8.208-4.262-9.713-3.857-1.506-8.208.403-9.713 4.262l-12.106 31.036c-1.459 3.741-4.653 6.569-8.543 7.565l-84.585 21.672c-8.707 2.23-15.784 8.588-18.932 17.005l-8.993 24.042-28.302 1.015c-20.282.704-39.218-8.816-50.705-25.524l-13.304-19.352c-8.361-12.163-19.769-22.061-32.988-28.622l-41.07-20.389c-24.645-12.234-39.956-36.928-39.956-64.444v-43.503l50.346-40.671c6.494-5.248 10.218-13.044 10.218-21.392v-17.244c0-4.143-3.358-7.5-7.5-7.5s-7.5 3.357-7.5 7.5v17.244c0 3.794-1.693 7.338-4.645 9.724l-40.919 33.056v-25.258c0-21.953 9.825-42.417 26.955-56.145l91.802-73.568c9.369-7.509 20.569-12.589 32.391-14.692l15.736-2.8 13.344 18.566c5.153 7.17 13.5 11.451 22.331 11.451h124.632c4.142 0 7.5-3.357 7.5-7.5s-3.358-7.5-7.5-7.5h-124.632c-4.013 0-7.808-1.945-10.15-5.205l-9.147-12.726 128.349-22.834c24.812-4.412 50.478 4.677 66.98 23.723l29.268 33.78c2.713 3.131 7.45 3.471 10.58.757 3.13-2.712 3.47-7.448.757-10.579l-29.268-33.78c-19.942-23.018-50.961-34.004-80.944-28.668l-160.463 28.547c-14.286 2.541-27.822 8.681-39.144 17.755l-91.802 73.568c-20.702 16.59-32.575 41.321-32.575 67.85v88.044c0 33.253 18.502 63.095 48.287 77.88l41.07 20.389c10.939 5.43 20.378 13.62 27.297 23.685l13.303 19.352c13.897 20.215 36.505 32.065 60.898 32.065.898 0 1.802-.017 2.705-.049l92.563-3.318c4.14-.148 7.375-3.624 7.227-7.764s-3.643-7.379-7.763-7.227z"/><path d="m512 240.448v-23.675c0-20.911-7.541-41.131-21.234-56.937l-37.119-42.841c-2.712-3.13-7.449-3.469-10.58-.757s-3.47 7.448-.757 10.579l37.119 42.841c11.331 13.079 17.571 29.811 17.571 47.114v18.42l-6.478 2.157c-5.633 1.874-11.856-.503-14.802-5.656l-18.932-33.129c-2.056-3.598-6.638-4.847-10.233-2.791-3.596 2.055-4.846 6.637-2.791 10.232l18.932 33.129c4.992 8.736 14.267 13.849 23.928 13.849 2.879 0 5.792-.454 8.636-1.401l1.739-.579v45.993c0 19.59-8.134 38.574-22.316 52.088l-33.987 32.385c-10.622 10.122-18.562 22.87-22.964 36.865l-.16.508c-7.476 23.775-29.233 40.349-54.139 41.241l-48.592 1.742c-4.14.148-7.375 3.624-7.227 7.764.145 4.048 3.472 7.231 7.49 7.231.091 0 .182-.002.273-.005l48.592-1.742c31.242-1.119 58.533-21.908 67.912-51.731l.16-.508c3.642-11.581 10.213-22.13 19.002-30.506l33.987-32.385c17.14-16.33 26.97-39.273 26.97-62.947v-56.528c0-.007 0-.014 0-.02z"/><path d="m167.726 127.525c-2.433-1.456-5.696-.752-5.696-.752l-17.816 4.781c-4 1.074-6.374 5.188-5.3 9.188s5.189 6.369 9.188 5.3l.101-.027-74.644 126.734c-2.102 3.569-.913 8.167 2.656 10.27 1.195.703 2.505 1.038 3.799 1.038 2.569 0 5.071-1.321 6.469-3.694l15.515-26.342 11.235 10.665c9.985 9.477 25.574 10.08 36.264 1.404l15.973-12.967v46.335l-26.431 27.074c-3.585 3.671-9.161 4.778-13.875 2.754l-32.907-14.125c-3.806-1.634-8.216.127-9.851 3.934-1.634 3.806.127 8.216 3.934 9.85l32.906 14.125c3.457 1.484 7.125 2.203 10.771 2.203 7.292 0 14.498-2.877 19.755-8.262l24.366-24.958 36.763 22.725c2.827 1.747 4.811 4.49 5.583 7.724l11.427 47.771c.824 3.441 3.898 5.757 7.288 5.757.578 0 1.165-.067 1.751-.208 4.029-.964 6.513-5.011 5.55-9.039l-11.427-47.771c-1.702-7.113-6.065-13.148-12.286-16.993l-38.317-23.689v-44.302l16.362 14.481c5.074 4.491 11.648 6.891 18.298 6.891 2.669 0 5.352-.387 7.953-1.181l29.122-8.885c3.962-1.209 6.194-5.4 4.985-9.362-1.208-3.962-5.4-6.195-9.362-4.985l-29.122 8.885c-4.128 1.261-8.7.266-11.932-2.595l-20.655-18.281c8.544-4.671 14.352-13.743 14.352-24.147 0-15.163-12.336-27.5-27.5-27.5s-27.5 12.337-27.5 27.5c0 10.223 5.612 19.155 13.913 23.894l-19.34 15.7c-4.858 3.945-11.945 3.67-16.484-.638l-13.748-13.05 51.552-87.529.147.55c.899 3.35 3.929 5.558 7.239 5.558.644 0 1.298-.084 1.949-.258 4.001-1.074 6.374-5.188 5.3-9.188l-4.781-17.815s-.735-2.898-3.492-4.548zm5.244 74.823c6.893 0 12.5 5.607 12.5 12.5s-5.607 12.5-12.5 12.5-12.5-5.607-12.5-12.5 5.607-12.5 12.5-12.5z"/><path d="m292.326 117.914c-2.081-.011-3.963.827-5.324 2.197l-13.213 12.594c-2.999 2.857-3.112 7.604-.255 10.604 2.858 2.998 7.606 3.111 10.604.254l.076-.073-4.861 147.004c-.137 4.14 3.108 7.607 7.248 7.744.085.003.168.004.252.004 4.027 0 7.357-3.197 7.492-7.252l2.348-71.022 20.109 5.192c8.411 2.17 17.461.199 24.207-5.275l21.774-17.675v45.971l-32.774 28.489c-4.945 4.299-8.198 10.235-9.161 16.718l-8.193 55.206c-.608 4.097 2.221 7.911 6.318 8.52.374.056.744.082 1.11.082 3.655 0 6.857-2.676 7.41-6.4l8.193-55.205c.437-2.946 1.916-5.646 4.164-7.6l31.187-27.109 37.177 22.98c2.829 1.749 4.812 4.492 5.585 7.726l11.428 47.771c.823 3.441 3.897 5.757 7.288 5.757.578 0 1.165-.067 1.751-.208 4.028-.964 6.513-5.011 5.549-9.039l-11.428-47.771c-1.701-7.112-6.064-13.147-12.286-16.994l-38.318-23.686v-48.72l26.892 13.692c2.67 1.359 4.766 3.637 5.9 6.41l9.017 22.06c1.188 2.905 3.989 4.664 6.945 4.664.945 0 1.906-.18 2.835-.56 3.834-1.567 5.672-5.946 4.104-9.78l-9.017-22.06c-2.495-6.102-7.103-11.109-12.978-14.102l-25.125-12.792c6.915-5 11.427-13.127 11.427-22.293 0-15.163-12.336-27.5-27.5-27.5s-27.5 12.337-27.5 27.5c0 10.223 5.612 19.155 13.913 23.894l-25.141 20.408c-3.066 2.49-7.18 3.385-11.002 2.398l-23.351-6.029 2.02-61.085.392.411c1.474 1.546 3.45 2.325 5.43 2.325 1.859 0 3.722-.688 5.173-2.071 2.999-2.857 3.112-7.604.255-10.604l-12.164-12.762c0 0-2.933-2.945-5.982-2.908zm77.957 33.524c6.893 0 12.5 5.607 12.5 12.5s-5.607 12.5-12.5 12.5-12.5-5.607-12.5-12.5 5.608-12.5 12.5-12.5z"/></g></g></svg>