<svg id="Capa_1" enable-background="new 0 0 512 512" viewBox="0 0 64 64" xmlns="http://www.w3.org/2000/svg"><g id="__normalized__" transform="translate(0 0) scale(0.125 0.125)"><g><g fill="#afb4c8"><path d="m171.442 69.627h-21.723c-7.447 0-13.766 5.463-14.842 12.832l-13.769 94.249c-1.322 9.051 5.695 17.168 14.842 17.168h21.687z"/><path d="m340.596 69.627h21.723c7.447 0 13.766 5.463 14.842 12.832l13.769 94.249c1.322 9.051-5.695 17.168-14.842 17.168h-21.687z"/><path d="m330.083 287.063h-148.166c-18.476 0-32.851-16.06-30.81-34.423l24.173-217.56c1.744-15.699 15.014-27.577 30.81-27.577h99.819c15.796 0 29.066 11.877 30.81 27.577l24.173 217.56c2.041 18.363-12.333 34.423-30.809 34.423z"/></g><path d="m181.107 252.64 24.173-217.56c1.744-15.699 15.014-27.577 30.81-27.577h-30c-15.796 0-29.066 11.877-30.81 27.577l-24.173 217.56c-2.04 18.363 12.334 34.423 30.81 34.423h30c-18.476 0-32.85-16.06-30.81-34.423z" fill="#7e8596"/><path d="m171.442 69.627h69.057l-2.13 12.755c-2.977 17.827-20.511 29.338-38.052 24.979l-32.179-7.996z" fill="#7d8495"/><path d="m168.137 99.366.704-6.337z" fill="#7d8495"/><path d="m171.442 69.627-2.601 23.402-.704 6.337 29.194 7.254 4.111-36.993z" fill="#636978"/><path d="m340.59 69.627h-69.057l2.13 12.755c2.977 17.827 20.511 29.338 38.052 24.979l32.179-7.996z" fill="#7d8495"/><path d="m364.718 411.223h-217.436l9.364-68.98c3.477-31.41 30.022-55.179 61.624-55.179h75.388c31.582 0 58.117 23.74 61.618 55.127z" fill="#afb4c8"/><path d="m248.27 287.063h-30c-31.602 0-58.147 23.769-61.624 55.179l-9.364 68.98h30l9.364-68.98c3.477-31.41 30.022-55.179 61.624-55.179z" fill="#7e8596"/><path d="m7.502 473.437h496.996v31.062h-496.996z" fill="#cfa388"/><path d="m7.502 473.437h30v31.062h-30z" fill="#b2876d"/><path d="m7.502 411.312h496.996v62.125h-496.996z" fill="#95e8c8"/><path d="m7.502 411.312h30v62.125h-30z" fill="#06ccab"/><path d="m287.062 162.814h-62.124l15.561-93.187h31.002z" fill="#7e8596"/><path d="m240.499 69.627-15.561 93.187h20l15.561-93.187z" fill="#636978"/><path d="m287.062 162.814h-62.125v16.062c0 8.284 6.716 15 15 15h32.125c8.284 0 15-6.716 15-15z" fill="#636978"/><path d="m244.938 178.876v-16.062h-20v16.062c0 8.284 6.716 15 15 15h20c-8.284 0-15-6.715-15-15z" fill="#505560"/><g><path d="m294.562 224.939c0-4.142-3.357-7.5-7.5-7.5h-62.124c-4.142 0-7.5 3.358-7.5 7.5s3.358 7.5 7.5 7.5h62.124c4.143 0 7.5-3.358 7.5-7.5z"/><path d="m512 411.311c0-4.142-3.357-7.5-7.5-7.5h-133.224l-8.552-62.548c-2.19-19.334-12.138-36.053-26.533-47.192 19.924-3.211 34.401-22.029 32.153-42.258l-5.603-50.432h13.349c15.272-1.796 22.693-10.38 22.261-25.754l-4.76-32.58c-.599-4.1-4.414-6.936-8.505-6.337-4.099.599-6.936 4.407-6.337 8.505l4.759 32.579c.145 5.126-2.327 7.988-7.418 8.587h-14.977l-12.135-109.25h13.342c3.754 0 6.874 2.699 7.419 6.414l4.28 29.32c.598 4.098 4.404 6.935 8.504 6.338 4.099-.599 6.937-4.406 6.338-8.505l-4.28-29.324c-1.607-10.97-11.178-19.243-22.261-19.243h-15.05l-3.097-27.875c-2.163-19.528-18.613-34.254-38.264-34.254h-99.82c-19.65 0-36.1 14.726-38.264 34.252l-3.097 27.875h-15.01c-11.09 0-20.661 8.275-22.264 19.247l-13.77 94.25c-2.519 15.794 7.981 25.794 22.264 25.752h13.31l-5.603 50.437c-2.245 20.204 12.191 39.003 32.082 42.247-14.414 11.149-24.365 27.893-26.532 47.261l-8.489 62.49h-23.446c-4.142 0-7.5 3.358-7.5 7.5s3.358 7.5 7.5 7.5h379.73v47.125h-482v-47.125h69.59c4.142 0 7.5-3.358 7.5-7.5s-3.358-7.5-7.5-7.5h-77.09c-4.142 0-7.5 3.358-7.5 7.5l.002 93.188c0 4.142 3.358 7.5 7.5 7.5h496.996c4.143 0 7.5-3.358 7.5-7.5zm-333.845-334.184h53.488c-2.726 13.375-13.415 26.958-29.517 22.956l-25.808-6.412zm54.283 93.187h47.124v8.562c0 4.136-3.364 7.5-7.5 7.5h-32.124c-4.136 0-7.5-3.364-7.5-7.5zm1.356-15 13.056-78.187h18.299l13.057 78.187zm46.595-78.187h53.456l1.839 16.551-25.777 6.405c-16.103 4.003-26.793-9.581-29.518-22.956zm-74.299-62.126h99.82c11.994 0 22.035 8.988 23.355 20.908l2.913 26.218h-152.357l2.913-26.22c1.321-11.918 11.362-20.906 23.356-20.906zm-77.562 162.791 13.77-94.249c.534-3.658 3.724-6.416 7.421-6.416h13.343l-12.139 109.249h-14.974c-5.449 0-8.032-5.125-7.421-8.584zm35.554 165.458c.008-.062.016-.124.023-.186 3.055-27.652 26.341-48.504 54.166-48.504h24.24c4.142 0 7.5-3.358 7.5-7.5s-3.358-7.5-7.5-7.5h-60.59c-15.562-1.737-23.347-10.434-23.356-26.092l16.082-144.758 23.862 5.929c9.357 2.263 18.504 1.125 27.441-3.416 0 0-8.511 51.588-8.511 51.59v16.062c0 12.407 10.093 22.5 22.5 22.5h32.124c12.406 0 22.5-10.093 22.5-22.5 0 0 0-16.065 0-16.067 0-.019-8.514-51.603-8.514-51.603 8.947 4.556 18.105 5.701 27.475 3.434l23.831-5.921 16.081 144.75c-.009 15.658-7.794 24.355-23.355 26.092h-54.89c-4.143 0-7.5 3.358-7.5 7.5s3.357 7.5 7.5 7.5h18.47c27.79 0 51.076 20.835 54.167 48.463.007.061.014.122.022.183l8.274 60.514h-30.5v-38.942c0-4.142-3.357-7.5-7.5-7.5s-7.5 3.358-7.5 7.5v38.942h-109.249v-38.942c0-4.142-3.358-7.5-7.5-7.5s-7.5 3.358-7.5 7.5v38.942h-30.508zm-149.08 153.749v-16.058h481.996v16.058z"/></g></g></g></svg>