<svg id="Capa_1" enable-background="new 0 0 511.948 511.948" viewBox="0 0 64 64" xmlns="http://www.w3.org/2000/svg"><g id="__normalized__" transform="translate(0 0) scale(0.12501269660199865 0.12501269660199865)"><g><g><path d="m375.61 80.893c9.357 9.357 11.453 23.792 5.033 35.364-32.386 58.377-103.467 136.078-144.755 177.367l-131.939 131.938c-18.769 18.769-49.2 18.769-67.969 0l-17.747-17.747c-10.892-10.892-10.893-29.081 0-39.973 49.302-49.302 173.872-129.829 255.648-211.606 26.117-26.117 43.445-49.475 54.933-69.172 9.69-16.615 33.155-19.816 46.796-6.171z" fill="#d98964"/></g><g><path d="m273.888 156.232c-17.076 17.076-36.013 34.093-55.735 50.781l-30.468-62.419 60.967-59.987 60.971 31.009c-9.557 12.591-21.305 26.186-35.735 40.616z" fill="#e7e7ef"/></g><g><path d="m501.95 338.681-71.55 71.55-102.672-23.072-72.696-113.118c12.605-13.162 26.567-28.252 40.682-44.287 10.224-11.616 20.528-23.738 30.451-35.977 13.368-16.475 26.032-33.17 36.886-49.183l120.811 78.407z" fill="#e7e7ef"/></g><g><path d="m450.576 313.28-43.137 43.137-62.497-22.291-55.239-97.585c14.306-16.035 28.948-33.214 42.653-50.48 20.491 11.755 103.318 58.773 103.318 58.773z" fill="#b5bccf"/></g><g><path d="m248.656 84.605 16.673 80.067-77.643-20.077" fill="#b5bccf"/></g><g><path d="m363.047 144.598v.01c-30.065 44.323-74.008 93.925-108.012 129.429l-36.884-67.019v-.02c19.727-16.677 38.664-33.694 55.731-50.762 14.438-14.438 26.186-28.025 35.744-40.623z" fill="#eab7a2"/></g><g><path d="m510.331 344.115c1.329-2.052 1.878-4.557 1.499-6.979l-18.09-115.68c-.433-2.767-2.086-5.319-4.436-6.844l-112.334-72.905c4.52-6.995 8.695-13.888 12.417-20.599 8.525-15.368 5.768-34.812-6.706-47.287-18.228-18.226-49.574-13.967-62.506 8.204-4.017 6.888-8.545 13.841-13.566 20.84l-53.186-27.05c-3.809-2.071-8.696-1.376-11.785 1.664l-60.967 59.987c-3.032 2.982-3.823 7.694-1.973 11.515l27.044 55.402c-31.495 26.338-64.8 51.844-95.665 75.48-41.264 31.601-76.9 58.891-98.916 80.906-11.262 11.264-14.386 28.873-7.606 43.311 1.883 4.009 4.475 7.674 7.606 10.805l17.747 17.747c17.003 17.002 43.548 21.715 65.387 11.664 6.212-2.859 11.891-6.83 16.725-11.664l34.538-34.539c3.905-3.905 3.905-10.237 0-14.143-3.906-3.904-10.236-3.904-14.143 0l-34.538 34.539c-14.84 14.839-38.987 14.841-53.827 0l-17.747-17.746c-7.038-7.042-7.043-18.792 0-25.832 21.082-21.082 56.232-48.001 96.934-79.17 29.969-22.951 62.214-47.647 93.016-73.25l27.473 49.919c-4.77 4.925-9.422 9.652-13.909 14.14l-35.628 35.628c-3.905 3.905-3.905 10.237 0 14.143 3.906 3.904 10.236 3.904 14.143 0l35.628-35.628c2.323-2.323 5.919-5.948 10.482-10.633l65.822 102.422c1.425 2.272 3.739 3.883 6.357 4.452l102.588 23.053c3.386.76 7.039-.351 9.433-2.854-.002.001 72.313-72.438 72.689-73.018zm-76.538 48.581-14.504-33.987 33.285-33.285 32.449 16.043zm-191.19-288.107 9.657 46.375-44.97-11.629zm51.474 14.588c-7.192 8.787-14.804 17.24-22.724 25.375l-8.659-41.584 31.524 16.033c-.048.059-.093.117-.141.176zm-48.815 50.635c-7.809 7.201-15.753 14.254-23.793 21.196l-15.278-31.3zm-14.261 39.391c22.879-19.619 45.293-39.984 65.576-62.311 5.433-5.98 10.686-12.135 15.729-18.448l36.129 19.602c-27.444 38.671-58.794 74.654-91.239 109.179l-26.353-47.886c.053-.045.105-.091.158-.136zm103.841-10.201c24.03 13.719 77.207 43.917 92.011 52.324l12.79 58.745-34.803 34.802-53.031-18.914-49.881-88.122c2.004-2.27 24.171-28.029 32.914-38.835zm16.438 148.002 48.679 17.362 13.583 31.829-72.911-16.384zm108.043-40.554-12.157-55.842 28.846-13.075 13.078 83.634zm3.758-85.014-26.894 12.19c-14.949-8.489-64.051-36.373-88.794-50.489 6.376-8.255 12.554-16.582 18.375-24.856zm-125.628-129.334c6.43-11.027 22.005-13.219 31.086-4.138 6.197 6.197 7.579 15.837 3.36 23.441-3.547 6.395-7.635 13.103-12.144 20.029l-35.311-19.159c4.76-6.758 9.11-13.489 13.009-20.173zm-69.44 182.805c6.679-7.054 13.288-14.175 19.827-21.36l46.234 81.679-9.341 28.777-57.039-88.756c.107-.113.212-.227.319-.34z"/></g><circle cx="169.854" cy="359.657" r="10"/></g></g></svg>